HIERARCHY
ROOT Hips
{
	OFFSET 0.000000 83.214638 0.000000
	CHANNELS 6 Xposition Yposition Zposition Xrotation Yrotation Zrotation
	JOINT Pelvis
	{
		OFFSET 0.000000 0.000000 0.000000
		CHANNELS 3 Xrotation Yrotation Zrotation
		JOINT LeftUpLeg
		{
			OFFSET 8.479700 -4.795502 -0.379100
			CHANNELS 3 Xrotation Yrotation Zrotation
			JOINT LeftLeg
			{
				OFFSET 0.024144 -32.555107 0.112900
				CHANNELS 3 Xrotation Yrotation Zrotation
				JOINT LeftFoot
				{
					OFFSET -0.024144 -32.638630 -3.012600
					CHANNELS 3 Xrotation Yrotation Zrotation
					JOINT LeftToeBase
					{
						OFFSET 0.970200 -13.225400 11.864200
						CHANNELS 3 Xrotation Yrotation Zrotation
						End Site
						{
							OFFSET 0.000000 12.319262 0.000000
						}
					}
					JOINT LFootTongue
					{
						OFFSET 1.142400 -1.059800 6.665200
						CHANNELS 3 Xrotation Yrotation Zrotation
						End Site
						{
							OFFSET 0.000000 12.319262 0.000000
						}
					}
				}
				JOINT LeftPantLeg
				{
					OFFSET 0.918482 -16.533964 -2.284700
					CHANNELS 3 Xrotation Yrotation Zrotation
					End Site
					{
						OFFSET 0.350399 24.744368 0.000000
					}
				}
			}
		}
		JOINT RightUpLeg
		{
			OFFSET -8.479700 -4.795502 -0.379100
			CHANNELS 3 Xrotation Yrotation Zrotation
			JOINT RightLeg
			{
				OFFSET -0.023144 -32.555092 0.112900
				CHANNELS 3 Xrotation Yrotation Zrotation
				JOINT RightFoot
				{
					OFFSET 0.023144 -32.638641 -3.012700
					CHANNELS 3 Xrotation Yrotation Zrotation
					JOINT RightToeBase
					{
						OFFSET -0.970200 -13.225400 11.864200
						CHANNELS 3 Xrotation Yrotation Zrotation
						End Site
						{
							OFFSET 0.000000 12.319244 0.000000
						}
					}
					JOINT RFootTongue
					{
						OFFSET -1.142200 -1.059800 6.665200
						CHANNELS 3 Xrotation Yrotation Zrotation
						End Site
						{
							OFFSET 0.000000 12.319243 0.000000
						}
					}
				}
				JOINT RightPantLeg
				{
					OFFSET -0.919482 -16.533978 -2.284800
					CHANNELS 3 Xrotation Yrotation Zrotation
					End Site
					{
						OFFSET -0.350400 24.744419 0.000000
					}
				}
			}
		}
	}
	JOINT Spine
	{
		OFFSET 0.000000 7.722000 1.166200
		CHANNELS 3 Xrotation Yrotation Zrotation
		JOINT Spine1
		{
			OFFSET 0.000000 12.024101 0.248800
			CHANNELS 3 Xrotation Yrotation Zrotation
			JOINT Spine2
			{
				OFFSET 0.000000 11.502998 -0.491200
				CHANNELS 3 Xrotation Yrotation Zrotation
				JOINT Neck
				{
					OFFSET 0.000000 18.430702 -3.123100
					CHANNELS 3 Xrotation Yrotation Zrotation
					JOINT Head
					{
						OFFSET 0.000000 9.051102 1.034000
						CHANNELS 3 Xrotation Yrotation Zrotation
						JOINT HairB
						{
							OFFSET 0.208400 24.786102 24.822300
							CHANNELS 3 Xrotation Yrotation Zrotation
							End Site
							{
								OFFSET 0.000000 32.263779 0.000000
							}
						}
						JOINT HairA
						{
							OFFSET -7.081100 24.428299 23.196600
							CHANNELS 3 Xrotation Yrotation Zrotation
							End Site
							{
								OFFSET 0.000000 32.263779 0.000000
							}
						}
						JOINT Hat
						{
							OFFSET 16.728800 15.048294 -15.439601
							CHANNELS 3 Xrotation Yrotation Zrotation
							End Site
							{
								OFFSET 0.000000 32.263779 0.000000
							}
						}
					}
				}
				JOINT LeftShoulder
				{
					OFFSET 6.197800 13.665199 -4.064700
					CHANNELS 3 Xrotation Yrotation Zrotation
					JOINT LeftArm
					{
						OFFSET 7.778100 -0.187103 -1.709300
						CHANNELS 3 Xrotation Yrotation Zrotation
						JOINT LeftForeArm
						{
							OFFSET 22.049376 0.000000 0.000000
							CHANNELS 3 Xrotation Yrotation Zrotation
							JOINT LeftHand
							{
								OFFSET 23.009392 0.000000 0.000000
								CHANNELS 3 Xrotation Yrotation Zrotation
								JOINT LeftHandThumb1
								{
									OFFSET 3.507191 -2.063065 3.133727
									CHANNELS 3 Xrotation Yrotation Zrotation
									JOINT LeftHandThumb2
									{
										OFFSET 3.101337 -1.790558 1.790558
										CHANNELS 3 Xrotation Yrotation Zrotation
										JOINT LeftHandThumb3
										{
											OFFSET 3.058640 -1.765907 1.765906
											CHANNELS 3 Xrotation Yrotation Zrotation
											End Site
											{
												OFFSET -0.415260 3.926476 -0.049563
											}
										}
									}
								}
								JOINT LeftHandIndex1
								{
									OFFSET 11.334419 -0.901459 3.706815
									CHANNELS 3 Xrotation Yrotation Zrotation
									JOINT LeftHandIndex2
									{
										OFFSET 3.283112 0.000000 0.000000
										CHANNELS 3 Xrotation Yrotation Zrotation
										JOINT LeftHandIndex3
										{
											OFFSET 3.323853 0.000000 0.000000
											CHANNELS 3 Xrotation Yrotation Zrotation
											End Site
											{
												OFFSET -1.135597 3.097809 0.402452
											}
										}
									}
								}
								JOINT LeftHandMiddle1
								{
									OFFSET 11.335861 0.000000 0.000000
									CHANNELS 3 Xrotation Yrotation Zrotation
									JOINT LeftHandMiddle2
									{
										OFFSET 3.410492 0.000000 0.000000
										CHANNELS 3 Xrotation Yrotation Zrotation
										JOINT LeftHandMiddle3
										{
											OFFSET 3.312172 0.000000 0.000000
											CHANNELS 3 Xrotation Yrotation Zrotation
											End Site
											{
												OFFSET -1.150200 3.080154 0.400270
											}
										}
									}
								}
								JOINT LeftHandRing1
								{
									OFFSET 11.514786 -0.013176 -3.003090
									CHANNELS 3 Xrotation Yrotation Zrotation
									JOINT LeftHandRing2
									{
										OFFSET 3.053307 0.000000 0.000000
										CHANNELS 3 Xrotation Yrotation Zrotation
										JOINT LeftHandRing3
										{
											OFFSET 3.295807 0.000000 0.000000
											CHANNELS 3 Xrotation Yrotation Zrotation
											End Site
											{
												OFFSET -1.281006 3.013344 0.375733
											}
										}
									}
								}
								JOINT LeftHandPinky1
								{
									OFFSET 10.518692 -0.960396 -5.730441
									CHANNELS 3 Xrotation Yrotation Zrotation
									JOINT LeftHandPinky2
									{
										OFFSET 2.861649 0.000000 0.000000
										CHANNELS 3 Xrotation Yrotation Zrotation
										JOINT LeftHandPinky3
										{
											OFFSET 2.863380 0.000000 0.000000
											CHANNELS 3 Xrotation Yrotation Zrotation
											End Site
											{
												OFFSET -0.843597 2.711159 0.369971
											}
										}
									}
								}
							}
							JOINT LSleeve
							{
								OFFSET 6.676277 -0.344902 -1.011730
								CHANNELS 3 Xrotation Yrotation Zrotation
								End Site
								{
									OFFSET 0.000000 14.885353 0.000000
								}
							}
						}
					}
				}
				JOINT RightShoulder
				{
					OFFSET -6.197800 13.665199 -4.064700
					CHANNELS 3 Xrotation Yrotation Zrotation
					JOINT RightArm
					{
						OFFSET -7.778100 -0.187103 -1.709300
						CHANNELS 3 Xrotation Yrotation Zrotation
						JOINT RightForeArm
						{
							OFFSET -22.049376 0.000000 0.000000
							CHANNELS 3 Xrotation Yrotation Zrotation
							JOINT RightHand
							{
								OFFSET -23.009392 0.000000 0.000000
								CHANNELS 3 Xrotation Yrotation Zrotation
								JOINT RightHandThumb1
								{
									OFFSET -3.507191 -2.063065 3.133727
									CHANNELS 3 Xrotation Yrotation Zrotation
									JOINT RightHandThumb2
									{
										OFFSET -3.101337 -1.790558 1.790558
										CHANNELS 3 Xrotation Yrotation Zrotation
										JOINT RightHandThumb3
										{
											OFFSET -3.058640 -1.765907 1.765906
											CHANNELS 3 Xrotation Yrotation Zrotation
											End Site
											{
												OFFSET 0.415260 3.926476 -0.049563
											}
										}
									}
								}
								JOINT RightHandIndex1
								{
									OFFSET -11.334419 -0.901459 3.706815
									CHANNELS 3 Xrotation Yrotation Zrotation
									JOINT RightHandIndex2
									{
										OFFSET -3.283112 0.000000 0.000000
										CHANNELS 3 Xrotation Yrotation Zrotation
										JOINT RightHandIndex3
										{
											OFFSET -3.323853 0.000000 0.000000
											CHANNELS 3 Xrotation Yrotation Zrotation
											End Site
											{
												OFFSET 1.135597 3.097809 0.402452
											}
										}
									}
								}
								JOINT RightHandMiddle1
								{
									OFFSET -11.335861 0.000000 0.000000
									CHANNELS 3 Xrotation Yrotation Zrotation
									JOINT RightHandMiddle2
									{
										OFFSET -3.410492 0.000000 0.000000
										CHANNELS 3 Xrotation Yrotation Zrotation
										JOINT RightHandMiddle3
										{
											OFFSET -3.312172 0.000000 0.000000
											CHANNELS 3 Xrotation Yrotation Zrotation
											End Site
											{
												OFFSET 1.150200 3.080154 0.400270
											}
										}
									}
								}
								JOINT RightHandRing1
								{
									OFFSET -11.514786 -0.013176 -3.003090
									CHANNELS 3 Xrotation Yrotation Zrotation
									JOINT RightHandRing2
									{
										OFFSET -3.053307 0.000000 0.000000
										CHANNELS 3 Xrotation Yrotation Zrotation
										JOINT RightHandRing3
										{
											OFFSET -3.295807 0.000000 0.000000
											CHANNELS 3 Xrotation Yrotation Zrotation
											End Site
											{
												OFFSET 1.281006 3.013344 0.375733
											}
										}
									}
								}
								JOINT RightHandPinky1
								{
									OFFSET -10.518692 -0.960396 -5.730441
									CHANNELS 3 Xrotation Yrotation Zrotation
									JOINT RightHandPinky2
									{
										OFFSET -2.861649 0.000000 0.000000
										CHANNELS 3 Xrotation Yrotation Zrotation
										JOINT RightHandPinky3
										{
											OFFSET -2.863380 0.000000 0.000000
											CHANNELS 3 Xrotation Yrotation Zrotation
											End Site
											{
												OFFSET 0.843597 2.711159 0.369971
											}
										}
									}
								}
							}
							JOINT RSleeve
							{
								OFFSET -6.676277 -0.344902 -1.011730
								CHANNELS 3 Xrotation Yrotation Zrotation
								End Site
								{
									OFFSET 0.000000 14.885353 0.000000
								}
							}
						}
					}
				}
				JOINT Backpack
				{
					OFFSET 0.000000 -2.471497 36.677502
					CHANNELS 3 Xrotation Yrotation Zrotation
					End Site
					{
						OFFSET 0.000000 20.427315 0.000000
					}
				}
				JOINT Hood
				{
					OFFSET 0.000000 18.754097 -10.431000
					CHANNELS 3 Xrotation Yrotation Zrotation
					JOINT Hood1
					{
						OFFSET 0.000000 -5.011002 -7.685901
						CHANNELS 3 Xrotation Yrotation Zrotation
						End Site
						{
							OFFSET 0.000000 9.175140 0.000000
						}
					}
				}
				JOINT LHoodieString
				{
					OFFSET 5.250500 16.397697 3.089900
					CHANNELS 3 Xrotation Yrotation Zrotation
					JOINT LHoodieString1
					{
						OFFSET 0.257700 -6.364304 3.694600
						CHANNELS 3 Xrotation Yrotation Zrotation
						JOINT LHoodieString2
						{
							OFFSET 0.000000 -9.643799 2.679100
							CHANNELS 3 Xrotation Yrotation Zrotation
							End Site
							{
								OFFSET 0.000000 10.009018 0.000000
							}
						}
					}
				}
				JOINT RHoodieString
				{
					OFFSET -5.250500 16.397697 3.089900
					CHANNELS 3 Xrotation Yrotation Zrotation
					JOINT RHoodieString1
					{
						OFFSET -0.257700 -6.364304 3.694600
						CHANNELS 3 Xrotation Yrotation Zrotation
						JOINT RHoodieString2
						{
							OFFSET 0.000000 -9.643799 2.679100
							CHANNELS 3 Xrotation Yrotation Zrotation
							End Site
							{
								OFFSET 0.000000 10.009018 0.000000
							}
						}
					}
				}
			}
			JOINT LBackpack_Strap
			{
				OFFSET 15.223200 -7.719803 -6.610900
				CHANNELS 3 Xrotation Yrotation Zrotation
				End Site
				{
					OFFSET 0.000000 16.040596 0.000000
				}
			}
			JOINT RBackpack_Strap
			{
				OFFSET -15.223000 -7.719803 -6.610900
				CHANNELS 3 Xrotation Yrotation Zrotation
				End Site
				{
					OFFSET 0.000000 16.040596 0.000000
				}
			}
		}
	}
	JOINT BoyFacialAnim_Joint
	{
		OFFSET 1.000000 -82.208099 -1.550900
		CHANNELS 3 Xrotation Yrotation Zrotation
		End Site
		{
			OFFSET 0.000000 30.012791 0.000000
		}
	}
}
MOTION
Frames: 4
Frame Time: 0.033333
23.482351 78.728081 17.127777 9.013465 -19.982113 -4.554914 -0.000001 0.000002 0.000001 -37.521596 9.321267 13.409716 47.951220 3.934039 0.223670 -20.984897 0.640328 -1.558712 -0.000000 -0.000000 -0.000000 -0.000000 -0.000000 -0.000000 0.000000 0.000000 -0.000000 -17.870355 -9.215131 -22.105557 35.311696 1.084745 -0.003471 4.434502 -0.046137 10.759518 0.000005 -0.000002 0.000001 0.000005 -0.000002 0.000001 0.000001 -0.000000 -0.000003 3.809923 1.210764 -2.521531 7.412457 2.559556 -1.248373 7.430057 2.511201 -1.238567 -7.178534 0.394317 1.684271 -3.886793 3.674395 6.730921 0.000001 -0.000000 -0.000000 0.000001 -0.000000 -0.000000 0.000001 -0.000000 -0.000000 0.555409 4.352977 -10.717327 -33.412025 -6.644084 -64.260291 -0.000001 -2.704053 -0.000007 49.353110 -5.119147 -3.661870 -1.940556 17.644612 8.289760 4.600200 15.962936 1.348840 0.000001 -0.000000 0.000001 0.576156 2.761892 -23.562238 0.105381 1.202392 -10.015928 -0.000003 -0.000001 -0.000002 0.575373 2.760108 -23.546215 0.105720 1.204312 -10.031905 -0.000001 0.000000 -0.000003 0.576155 2.761865 -23.562238 0.105380 1.202413 -10.015932 -0.000002 -0.000002 -0.000002 2.189463 6.483753 -23.181905 0.098124 -2.852833 -10.518882 0.000001 0.000000 -0.000004 0.000000 0.000001 0.000000 0.944423 -1.735483 11.347110 -1.273883 17.686471 55.251241 -0.000012 39.660631 0.000022 39.883688 4.102219 19.765741 -2.406725 -20.106414 -9.273501 4.975749 -12.265402 -0.489420 -0.000002 0.000004 0.000003 0.390894 -2.302725 19.266326 0.266802 -1.911256 15.892008 -0.000003 0.000000 0.000002 0.390893 -2.302712 19.266336 0.266798 -1.911277 15.892003 0.000006 -0.000000 -0.000000 0.390899 -2.302710 19.266335 0.266794 -1.911265 15.892003 0.000001 -0.000001 0.000002 0.390890 -2.302706 19.266326 0.266795 -1.911270 15.891994 0.000003 -0.000000 0.000002 -0.000001 0.000001 -0.000001 0.000001 0.000001 0.000000 0.000001 0.000001 0.000000 0.000001 0.000001 0.000000 0.000001 0.000001 0.000000 0.000001 0.000001 -0.000000 0.000001 -0.000000 -0.000000 0.000001 0.000001 0.000000 0.000001 0.000001 -0.000000 0.000001 -0.000000 -0.000000 -0.000001 -0.000001 -0.000000 -0.000001 -0.000001 -0.000000 -0.000001 0.000002 0.000001 
23.820787 79.491119 17.634226 8.464578 -21.328768 -4.616740 -0.000001 0.000000 -0.000000 -34.822364 9.837230 12.799580 44.961540 5.409874 0.295652 -20.144202 0.662141 -1.771435 0.000000 0.000000 -0.000000 0.000000 0.000000 -0.000000 0.000002 -0.000000 -0.000000 -17.789067 -10.193350 -20.314550 34.292040 -0.703590 -0.078484 0.969998 -0.315316 11.080414 -0.000000 -0.000000 -0.000000 -0.000000 -0.000000 -0.000000 0.000000 0.000002 -0.000000 3.727968 1.183528 -2.394729 7.270336 2.502275 -1.166979 7.286919 2.456241 -1.158242 -6.360329 0.523928 1.607274 -1.337661 4.311440 6.071676 -0.000001 -0.000000 0.000000 -0.000001 -0.000000 0.000000 -0.000001 -0.000000 0.000000 0.542191 4.526747 -10.863002 -32.290720 -3.979095 -63.661482 -0.000002 -2.490964 -0.000023 49.290945 -4.403960 -3.531381 -1.940564 17.644612 8.289760 4.600195 15.962938 1.348843 -0.000000 -0.000005 -0.000003 0.576153 2.761892 -23.562238 0.105379 1.202393 -10.015928 0.000001 0.000001 -0.000002 0.575369 2.760107 -23.546213 0.105715 1.204311 -10.031903 -0.000001 -0.000001 0.000002 0.576148 2.761867 -23.562242 0.105379 1.202414 -10.015929 -0.000001 0.000000 -0.000002 2.189457 6.483753 -23.181903 0.098127 -2.852834 -10.518881 -0.000000 -0.000000 -0.000000 0.000000 0.000000 0.000000 0.936920 -1.911476 11.545020 -0.477915 16.606007 55.794436 -0.000000 39.748952 0.000020 40.797997 4.240303 19.386288 -2.406725 -20.106415 -9.273500 4.975751 -12.265396 -0.489425 -0.000001 0.000003 0.000001 0.390890 -2.302724 19.266326 0.266802 -1.911257 15.892009 -0.000003 -0.000000 0.000002 0.390893 -2.302712 19.266333 0.266798 -1.911276 15.891996 0.000005 -0.000002 0.000003 0.390899 -2.302709 19.266328 0.266795 -1.911265 15.891996 -0.000003 -0.000001 0.000002 0.390892 -2.302705 19.266323 0.266798 -1.911267 15.891992 0.000001 0.000000 0.000000 0.000000 -0.000002 0.000000 -0.000001 0.000000 0.000001 -0.000001 0.000000 0.000001 -0.000001 0.000000 0.000001 -0.000001 0.000000 0.000001 -0.000001 0.000000 0.000001 -0.000001 0.000001 -0.000000 -0.000001 0.000000 0.000001 -0.000001 0.000000 0.000001 -0.000001 0.000001 -0.000000 -0.000002 0.000000 -0.000001 -0.000002 0.000000 -0.000001 -0.000001 0.000000 -0.000000 
24.088535 80.128929 18.058887 7.873285 -22.563849 -4.664374 0.000000 0.000000 -0.000000 -32.332326 10.315049 12.203237 42.266481 6.796597 0.363730 -19.343386 0.675991 -1.956470 -0.000000 0.000000 0.000000 -0.000000 0.000000 0.000000 -0.000001 -0.000000 0.000000 -17.590085 -11.055791 -18.444473 33.071858 -2.058137 -0.135022 -1.897278 -0.664120 11.691399 -0.000000 -0.000000 0.000002 -0.000000 -0.000000 0.000002 -0.000003 -0.000001 0.000002 3.662201 1.138881 -2.280194 7.159466 2.413511 -1.071593 7.174796 2.369719 -1.063896 -5.542073 0.656419 1.490358 1.128762 4.893218 5.289178 0.000001 -0.000001 -0.000000 0.000001 -0.000001 -0.000000 0.000001 -0.000001 -0.000000 0.527914 4.685756 -10.996907 -31.021237 -1.732748 -63.147503 0.000001 -2.539374 0.000017 49.007656 -4.117224 -3.519131 -1.940562 17.644616 8.289759 4.600202 15.962934 1.348843 0.000002 -0.000004 -0.000002 0.576154 2.761892 -23.562232 0.105379 1.202395 -10.015929 -0.000001 -0.000002 -0.000000 0.575370 2.760108 -23.546215 0.105723 1.204312 -10.031907 0.000004 0.000001 0.000000 0.576151 2.761865 -23.562235 0.105382 1.202414 -10.015929 0.000001 -0.000000 -0.000002 2.189460 6.483754 -23.181905 0.098122 -2.852833 -10.518881 -0.000001 -0.000001 -0.000000 0.000000 -0.000000 0.000001 0.928873 -2.068483 11.730295 0.183819 15.477026 56.376303 0.000002 39.709784 -0.000022 41.726032 4.413408 18.956136 -2.406725 -20.106412 -9.273501 4.975753 -12.265404 -0.489423 0.000002 0.000002 0.000003 0.390890 -2.302725 19.266328 0.266802 -1.911257 15.892004 -0.000003 0.000001 0.000002 0.390890 -2.302713 19.266335 0.266798 -1.911276 15.891998 0.000002 0.000000 -0.000000 0.390898 -2.302711 19.266333 0.266791 -1.911266 15.892001 0.000002 0.000000 0.000004 0.390890 -2.302706 19.266324 0.266799 -1.911270 15.891998 0.000002 -0.000001 -0.000000 -0.000000 -0.000001 0.000000 -0.000001 0.000000 0.000000 -0.000001 0.000000 0.000000 -0.000001 0.000000 0.000000 -0.000001 0.000000 0.000000 -0.000001 0.000000 0.000001 -0.000001 0.000002 -0.000000 -0.000001 0.000000 0.000000 -0.000001 0.000000 0.000001 -0.000001 0.000002 -0.000000 -0.000001 0.000002 -0.000000 -0.000001 0.000002 -0.000000 0.000000 0.000000 -0.000000 
24.284952 80.661888 18.398260 7.281682 -23.668878 -4.699064 -0.000000 -0.000001 -0.000000 -30.078678 10.733981 11.643041 39.846323 8.076460 0.427053 -18.574264 0.685079 -2.127762 0.000000 -0.000000 0.000000 0.000000 -0.000000 0.000000 -0.000001 0.000000 0.000000 -17.274016 -11.749207 -16.506914 31.718026 -3.175369 -0.183075 -4.253975 -1.070844 12.462472 -0.000000 -0.000002 0.000001 -0.000000 -0.000002 0.000001 0.000001 -0.000002 0.000002 3.607966 1.079344 -2.175782 7.070548 2.296498 -0.966781 7.084495 2.254831 -0.960074 -4.751481 0.781781 1.338962 3.472641 5.375210 4.441467 -0.000003 0.000000 -0.000000 -0.000003 0.000000 -0.000000 -0.000003 0.000000 -0.000000 0.511859 4.843656 -11.115000 -29.612108 0.047693 -62.761973 0.000000 -2.830664 0.000005 48.481625 -4.233317 -3.646198 -1.940563 17.644616 8.289760 4.600204 15.962932 1.348841 -0.000000 0.000003 0.000001 0.576153 2.761892 -23.562237 0.105378 1.202393 -10.015929 -0.000004 -0.000001 0.000001 0.575368 2.760108 -23.546215 0.105719 1.204312 -10.031909 -0.000001 0.000001 0.000000 0.576145 2.761866 -23.562238 0.105380 1.202415 -10.015933 -0.000002 0.000000 -0.000000 2.189457 6.483752 -23.181899 0.098123 -2.852833 -10.518882 0.000003 0.000001 -0.000002 -0.000000 -0.000000 0.000000 0.915382 -2.178117 11.794476 0.701243 14.304183 57.117447 -0.000005 39.558605 0.000034 42.597609 4.627546 18.457027 -2.406731 -20.106414 -9.273499 4.975753 -12.265402 -0.489423 0.000000 0.000002 -0.000001 0.390891 -2.302724 19.266323 0.266804 -1.911255 15.892006 -0.000002 0.000001 0.000002 0.390885 -2.302714 19.266333 0.266799 -1.911275 15.891999 0.000001 -0.000000 -0.000000 0.390895 -2.302712 19.266333 0.266794 -1.911266 15.891999 0.000003 -0.000000 0.000002 0.390892 -2.302705 19.266324 0.266796 -1.911269 15.891994 -0.000003 -0.000001 0.000003 -0.000001 -0.000002 0.000000 0.000001 0.000002 -0.000000 0.000001 0.000002 -0.000000 0.000001 0.000002 -0.000000 0.000001 0.000002 -0.000000 0.000001 0.000002 -0.000001 0.000001 -0.000000 -0.000001 0.000001 0.000002 -0.000000 0.000001 0.000002 -0.000001 0.000001 -0.000000 -0.000001 0.000002 -0.000001 -0.000000 0.000002 -0.000001 -0.000000 -0.000000 -0.000001 -0.000000 
